<?xml version="1.0" encoding="UTF-8" standalone="no"?>
<!DOCTYPE svg PUBLIC "-//W3C//DTD SVG 1.1//EN"
 "http://www.w3.org/Graphics/SVG/1.1/DTD/svg11.dtd">
<!-- Generated by graphviz version 12.2.1 (20241206.2353)
 -->
<!-- Title: packages_RagponUML Pages: 1 -->
<svg width="2551pt" height="620pt"
 viewBox="0.00 0.00 2551.12 620.00" xmlns="http://www.w3.org/2000/svg" xmlns:xlink="http://www.w3.org/1999/xlink">
<g id="graph0" class="graph" transform="scale(1 1) rotate(0) translate(4 616)">
<title>packages_RagponUML</title>
<polygon fill="white" stroke="none" points="-4,4 -4,-616 2547.12,-616 2547.12,4 -4,4"/>
<!-- ragpon -->
<g id="node1" class="node">
<title>ragpon</title>
<polygon fill="none" stroke="black" points="797.62,-108 743.62,-108 743.62,-72 797.62,-72 797.62,-108"/>
<text text-anchor="middle" x="770.62" y="-84.95" font-family="Times New Roman,serif" font-size="14.00">ragpon</text>
</g>
<!-- ragpon.chunk_processor -->
<g id="node6" class="node">
<title>ragpon.chunk_processor</title>
<polygon fill="none" stroke="black" points="820,-468 671.25,-468 671.25,-432 820,-432 820,-468"/>
<text text-anchor="middle" x="745.62" y="-444.95" font-family="Times New Roman,serif" font-size="14.00">ragpon.chunk_processor</text>
</g>
<!-- ragpon&#45;&gt;ragpon.chunk_processor -->
<g id="edge1" class="edge">
<title>ragpon&#45;&gt;ragpon.chunk_processor</title>
<path fill="none" stroke="black" d="M765.87,-108.21C759.53,-132.16 748.64,-176.97 744.62,-216 740.94,-251.76 750.93,-338.56 751.62,-360 752.14,-375.99 752.52,-380.03 751.62,-396 751.17,-404.08 750.32,-412.81 749.41,-420.81"/>
<polygon fill="black" stroke="black" points="748.21,-430.65 744.95,-420.17 748.67,-426.89 749.42,-420.72 749.42,-420.72 749.42,-420.72 748.67,-426.89 753.89,-421.27 748.21,-430.65"/>
</g>
<!-- ragpon.config -->
<g id="node7" class="node">
<title>ragpon.config</title>
<polygon fill="none" stroke="black" points="424.5,-468 332.75,-468 332.75,-432 424.5,-432 424.5,-468"/>
<text text-anchor="middle" x="378.62" y="-444.95" font-family="Times New Roman,serif" font-size="14.00">ragpon.config</text>
</g>
<!-- ragpon&#45;&gt;ragpon.config -->
<g id="edge2" class="edge">
<title>ragpon&#45;&gt;ragpon.config</title>
<path fill="none" stroke="black" d="M743.29,-93.09C606.48,-103.92 2.62,-156.05 2.62,-233 2.62,-233 2.62,-233 2.62,-307 2.62,-347.45 -7.86,-368.31 21.62,-396 63.89,-435.69 231.65,-445.69 321.34,-448.19"/>
<polygon fill="black" stroke="black" points="331.19,-448.44 321.08,-452.68 327.41,-448.34 321.19,-448.19 321.19,-448.19 321.19,-448.19 327.41,-448.34 321.31,-443.69 331.19,-448.44"/>
</g>
<!-- ragpon.domain -->
<g id="node10" class="node">
<title>ragpon.domain</title>
<polygon fill="none" stroke="black" points="1365.87,-324 1267.37,-324 1267.37,-288 1365.87,-288 1365.87,-324"/>
<text text-anchor="middle" x="1316.62" y="-300.95" font-family="Times New Roman,serif" font-size="14.00">ragpon.domain</text>
</g>
<!-- ragpon&#45;&gt;ragpon.domain -->
<g id="edge3" class="edge">
<title>ragpon&#45;&gt;ragpon.domain</title>
<path fill="none" stroke="black" d="M798.07,-101.76C883.63,-135.29 1146.61,-238.36 1261.71,-283.48"/>
<polygon fill="black" stroke="black" points="1270.91,-287.09 1259.96,-287.63 1267.39,-285.71 1261.6,-283.44 1261.6,-283.44 1261.6,-283.44 1267.39,-285.71 1263.25,-279.25 1270.91,-287.09"/>
</g>
<!-- ragpon.ml_models -->
<g id="node17" class="node">
<title>ragpon.ml_models</title>
<polygon fill="none" stroke="black" points="477,-324 358.25,-324 358.25,-288 477,-288 477,-324"/>
<text text-anchor="middle" x="417.62" y="-300.95" font-family="Times New Roman,serif" font-size="14.00">ragpon.ml_models</text>
</g>
<!-- ragpon&#45;&gt;ragpon.ml_models -->
<g id="edge4" class="edge">
<title>ragpon&#45;&gt;ragpon.ml_models</title>
<path fill="none" stroke="black" d="M743.32,-100.24C716.82,-109.69 675.85,-125.55 642.62,-144 567.89,-185.49 488.34,-247.09 446.78,-280.8"/>
<polygon fill="black" stroke="black" points="439.2,-286.98 444.11,-277.17 442.13,-284.58 446.95,-280.65 446.95,-280.65 446.95,-280.65 442.13,-284.58 449.8,-284.14 439.2,-286.98"/>
</g>
<!-- ragpon.repository -->
<g id="node21" class="node">
<title>ragpon.repository</title>
<polygon fill="none" stroke="black" points="1747.62,-180 1635.62,-180 1635.62,-144 1747.62,-144 1747.62,-180"/>
<text text-anchor="middle" x="1691.62" y="-156.95" font-family="Times New Roman,serif" font-size="14.00">ragpon.repository</text>
</g>
<!-- ragpon&#45;&gt;ragpon.repository -->
<g id="edge5" class="edge">
<title>ragpon&#45;&gt;ragpon.repository</title>
<path fill="none" stroke="black" d="M797.69,-93.06C921.73,-102.48 1437.81,-141.71 1624.14,-155.87"/>
<polygon fill="black" stroke="black" points="1633.93,-156.62 1623.62,-160.34 1630.16,-156.33 1623.96,-155.86 1623.96,-155.86 1623.96,-155.86 1630.16,-156.33 1624.3,-151.37 1633.93,-156.62"/>
</g>
<!-- ragpon.service -->
<g id="node30" class="node">
<title>ragpon.service</title>
<polygon fill="none" stroke="black" points="875.37,-180 779.87,-180 779.87,-144 875.37,-144 875.37,-180"/>
<text text-anchor="middle" x="827.62" y="-156.95" font-family="Times New Roman,serif" font-size="14.00">ragpon.service</text>
</g>
<!-- ragpon&#45;&gt;ragpon.service -->
<g id="edge6" class="edge">
<title>ragpon&#45;&gt;ragpon.service</title>
<path fill="none" stroke="black" d="M784.71,-108.3C791.34,-116.44 799.37,-126.31 806.69,-135.3"/>
<polygon fill="black" stroke="black" points="812.92,-142.95 803.12,-138.04 810.54,-140.02 806.61,-135.2 806.61,-135.2 806.61,-135.2 810.54,-140.02 810.1,-132.36 812.92,-142.95"/>
</g>
<!-- ragpon.DocSimRanker -->
<g id="node2" class="node">
<title>ragpon.DocSimRanker</title>
<polygon fill="none" stroke="black" points="1019.25,-36 878,-36 878,0 1019.25,0 1019.25,-36"/>
<text text-anchor="middle" x="948.62" y="-12.95" font-family="Times New Roman,serif" font-size="14.00">ragpon.DocSimRanker</text>
</g>
<!-- ragpon._utils -->
<g id="node3" class="node">
<title>ragpon._utils</title>
<polygon fill="none" stroke="black" points="135.25,-540 48,-540 48,-504 135.25,-504 135.25,-540"/>
<text text-anchor="middle" x="91.62" y="-516.95" font-family="Times New Roman,serif" font-size="14.00">ragpon._utils</text>
</g>
<!-- ragpon._utils.logging_helper -->
<g id="node4" class="node">
<title>ragpon._utils.logging_helper</title>
<polygon fill="none" stroke="black" points="1212,-612 1039.25,-612 1039.25,-576 1212,-576 1212,-612"/>
<text text-anchor="middle" x="1125.62" y="-588.95" font-family="Times New Roman,serif" font-size="14.00">ragpon._utils.logging_helper</text>
</g>
<!-- ragpon._utils&#45;&gt;ragpon._utils.logging_helper -->
<g id="edge7" class="edge">
<title>ragpon._utils&#45;&gt;ragpon._utils.logging_helper</title>
<path fill="none" stroke="black" d="M135.71,-537.06C140.37,-538.21 145.07,-539.22 149.62,-540 316.3,-568.56 815.04,-584.77 1027.75,-590.56"/>
<polygon fill="black" stroke="black" points="1037.67,-590.82 1027.56,-595.05 1033.89,-590.72 1027.68,-590.55 1027.68,-590.55 1027.68,-590.55 1033.89,-590.72 1027.8,-586.05 1037.67,-590.82"/>
</g>
<!-- ragpon.application -->
<g id="node5" class="node">
<title>ragpon.application</title>
<polygon fill="none" stroke="black" points="1154.25,-36 1037,-36 1037,0 1154.25,0 1154.25,-36"/>
<text text-anchor="middle" x="1095.62" y="-12.95" font-family="Times New Roman,serif" font-size="14.00">ragpon.application</text>
</g>
<!-- ragpon.chunk_processor&#45;&gt;ragpon._utils.logging_helper -->
<g id="edge8" class="edge">
<title>ragpon.chunk_processor&#45;&gt;ragpon._utils.logging_helper</title>
<path fill="none" stroke="black" d="M792.22,-468.41C861.97,-494.48 993.36,-543.58 1068.7,-571.73"/>
<polygon fill="black" stroke="black" points="1077.8,-575.13 1066.86,-575.85 1074.26,-573.81 1068.43,-571.63 1068.43,-571.63 1068.43,-571.63 1074.26,-573.81 1070.01,-567.41 1077.8,-575.13"/>
</g>
<!-- ragpon.config.config -->
<g id="node8" class="node">
<title>ragpon.config.config</title>
<polygon fill="none" stroke="black" points="577.62,-540 447.62,-540 447.62,-504 577.62,-504 577.62,-540"/>
<text text-anchor="middle" x="512.62" y="-516.95" font-family="Times New Roman,serif" font-size="14.00">ragpon.config.config</text>
</g>
<!-- ragpon.config&#45;&gt;ragpon.config.config -->
<g id="edge9" class="edge">
<title>ragpon.config&#45;&gt;ragpon.config.config</title>
<path fill="none" stroke="black" d="M412.09,-468.48C429.57,-477.61 451.15,-488.89 469.83,-498.65"/>
<polygon fill="black" stroke="black" points="478.5,-503.18 467.55,-502.53 475.15,-501.42 469.64,-498.55 469.64,-498.55 469.64,-498.55 475.15,-501.42 471.72,-494.56 478.5,-503.18"/>
</g>
<!-- ragpon.config.proxy_configurator -->
<g id="node9" class="node">
<title>ragpon.config.proxy_configurator</title>
<polygon fill="none" stroke="black" points="429.87,-540 229.37,-540 229.37,-504 429.87,-504 429.87,-540"/>
<text text-anchor="middle" x="329.62" y="-516.95" font-family="Times New Roman,serif" font-size="14.00">ragpon.config.proxy_configurator</text>
</g>
<!-- ragpon.config&#45;&gt;ragpon.config.proxy_configurator -->
<g id="edge10" class="edge">
<title>ragpon.config&#45;&gt;ragpon.config.proxy_configurator</title>
<path fill="none" stroke="black" d="M366.51,-468.3C360.93,-476.27 354.19,-485.9 348.01,-494.74"/>
<polygon fill="black" stroke="black" points="342.29,-502.9 344.34,-492.12 344.46,-499.8 348.03,-494.71 348.03,-494.71 348.03,-494.71 344.46,-499.8 351.71,-497.29 342.29,-502.9"/>
</g>
<!-- ragpon.config.config&#45;&gt;ragpon._utils.logging_helper -->
<g id="edge11" class="edge">
<title>ragpon.config.config&#45;&gt;ragpon._utils.logging_helper</title>
<path fill="none" stroke="black" d="M578.04,-537.67C582.63,-538.52 587.19,-539.3 591.62,-540 742.96,-563.72 920.2,-578.83 1027.62,-586.61"/>
<polygon fill="black" stroke="black" points="1037.55,-587.32 1027.25,-591.1 1033.77,-587.05 1027.57,-586.61 1027.57,-586.61 1027.57,-586.61 1033.77,-587.05 1027.89,-582.12 1037.55,-587.32"/>
</g>
<!-- ragpon.config.proxy_configurator&#45;&gt;ragpon._utils.logging_helper -->
<g id="edge12" class="edge">
<title>ragpon.config.proxy_configurator&#45;&gt;ragpon._utils.logging_helper</title>
<path fill="none" stroke="black" d="M430.25,-538.99C433.07,-539.34 435.86,-539.68 438.62,-540 647.96,-564.36 894.52,-580.29 1027.94,-587.86"/>
<polygon fill="black" stroke="black" points="1037.71,-588.41 1027.47,-592.34 1033.93,-588.2 1027.72,-587.85 1027.72,-587.85 1027.72,-587.85 1033.93,-588.2 1027.98,-583.35 1037.71,-588.41"/>
</g>
<!-- ragpon.domain.document_processing_pipeline -->
<g id="node11" class="node">
<title>ragpon.domain.document_processing_pipeline</title>
<polygon fill="none" stroke="black" points="1222.12,-396 951.12,-396 951.12,-360 1222.12,-360 1222.12,-396"/>
<text text-anchor="middle" x="1086.62" y="-372.95" font-family="Times New Roman,serif" font-size="14.00">ragpon.domain.document_processing_pipeline</text>
</g>
<!-- ragpon.domain&#45;&gt;ragpon.domain.document_processing_pipeline -->
<g id="edge13" class="edge">
<title>ragpon.domain&#45;&gt;ragpon.domain.document_processing_pipeline</title>
<path fill="none" stroke="black" d="M1267,-322.1C1234.07,-332.13 1190.42,-345.41 1154.31,-356.4"/>
<polygon fill="black" stroke="black" points="1145.02,-359.23 1153.28,-352.01 1148.64,-358.12 1154.59,-356.31 1154.59,-356.31 1154.59,-356.31 1148.64,-358.12 1155.9,-360.62 1145.02,-359.23"/>
</g>
<!-- ragpon.domain.document_reader -->
<g id="node12" class="node">
<title>ragpon.domain.document_reader</title>
<polygon fill="none" stroke="black" points="1338,-468 1141.25,-468 1141.25,-432 1338,-432 1338,-468"/>
<text text-anchor="middle" x="1239.62" y="-444.95" font-family="Times New Roman,serif" font-size="14.00">ragpon.domain.document_reader</text>
</g>
<!-- ragpon.domain&#45;&gt;ragpon.domain.document_reader -->
<g id="edge14" class="edge">
<title>ragpon.domain&#45;&gt;ragpon.domain.document_reader</title>
<path fill="none" stroke="black" d="M1307.18,-324.41C1293.95,-348.82 1269.76,-393.42 1254.2,-422.11"/>
<polygon fill="black" stroke="black" points="1249.48,-430.82 1250.29,-419.88 1251.28,-427.49 1254.25,-422.03 1254.25,-422.03 1254.25,-422.03 1251.28,-427.49 1258.2,-424.17 1249.48,-430.82"/>
</g>
<!-- ragpon.domain.domain -->
<g id="node13" class="node">
<title>ragpon.domain.domain</title>
<polygon fill="none" stroke="black" points="1551.37,-540 1407.87,-540 1407.87,-504 1551.37,-504 1551.37,-540"/>
<text text-anchor="middle" x="1479.62" y="-516.95" font-family="Times New Roman,serif" font-size="14.00">ragpon.domain.domain</text>
</g>
<!-- ragpon.domain&#45;&gt;ragpon.domain.domain -->
<g id="edge15" class="edge">
<title>ragpon.domain&#45;&gt;ragpon.domain.domain</title>
<path fill="none" stroke="black" d="M1327.06,-324.14C1345.75,-354.34 1386.79,-418.5 1427.62,-468 1435.45,-477.49 1444.68,-487.28 1453.17,-495.82"/>
<polygon fill="black" stroke="black" points="1460.14,-502.72 1449.87,-498.88 1457.45,-500.06 1453.03,-495.68 1453.03,-495.68 1453.03,-495.68 1457.45,-500.06 1456.19,-492.48 1460.14,-502.72"/>
</g>
<!-- ragpon.domain.metadata_generator -->
<g id="node14" class="node">
<title>ragpon.domain.metadata_generator</title>
<polygon fill="none" stroke="black" points="1047.37,-468 837.87,-468 837.87,-432 1047.37,-432 1047.37,-468"/>
<text text-anchor="middle" x="942.62" y="-444.95" font-family="Times New Roman,serif" font-size="14.00">ragpon.domain.metadata_generator</text>
</g>
<!-- ragpon.domain&#45;&gt;ragpon.domain.metadata_generator -->
<g id="edge16" class="edge">
<title>ragpon.domain&#45;&gt;ragpon.domain.metadata_generator</title>
<path fill="none" stroke="black" d="M1267,-306.37C1175.12,-306.37 984.06,-312.28 942.62,-360 928.39,-376.39 929.78,-401.58 933.92,-420.98"/>
<polygon fill="black" stroke="black" points="936.29,-430.45 929.5,-421.84 935.37,-426.78 933.87,-420.75 933.87,-420.75 933.87,-420.75 935.37,-426.78 938.23,-419.65 936.29,-430.45"/>
</g>
<!-- ragpon.domain.document_processing_pipeline&#45;&gt;ragpon._utils.logging_helper -->
<g id="edge17" class="edge">
<title>ragpon.domain.document_processing_pipeline&#45;&gt;ragpon._utils.logging_helper</title>
<path fill="none" stroke="black" d="M1089.15,-396.43C1091.8,-414.4 1096.19,-443.21 1100.62,-468 1106.59,-501.44 1114.39,-539.72 1119.68,-565.01"/>
<polygon fill="black" stroke="black" points="1121.67,-574.46 1115.2,-565.6 1120.89,-570.76 1119.61,-564.67 1119.61,-564.67 1119.61,-564.67 1120.89,-570.76 1124.01,-563.75 1121.67,-574.46"/>
</g>
<!-- ragpon.domain.document_processing_pipeline&#45;&gt;ragpon.chunk_processor -->
<g id="edge18" class="edge">
<title>ragpon.domain.document_processing_pipeline&#45;&gt;ragpon.chunk_processor</title>
<path fill="none" stroke="black" d="M1001.45,-396.48C949.52,-407.14 883.35,-420.73 831.32,-431.41"/>
<polygon fill="black" stroke="black" points="821.63,-433.4 830.52,-426.98 825.34,-432.64 831.43,-431.39 831.43,-431.39 831.43,-431.39 825.34,-432.64 832.33,-435.79 821.63,-433.4"/>
</g>
<!-- ragpon.domain.document_processing_pipeline&#45;&gt;ragpon.domain.document_reader -->
<g id="edge19" class="edge">
<title>ragpon.domain.document_processing_pipeline&#45;&gt;ragpon.domain.document_reader</title>
<path fill="none" stroke="black" d="M1124.84,-396.48C1145.08,-405.75 1170.15,-417.22 1191.69,-427.07"/>
<polygon fill="black" stroke="black" points="1200.52,-431.11 1189.56,-431.04 1197.08,-429.54 1191.43,-426.95 1191.43,-426.95 1191.43,-426.95 1197.08,-429.54 1193.3,-422.86 1200.52,-431.11"/>
</g>
<!-- ragpon.domain.document_processing_pipeline&#45;&gt;ragpon.domain.domain -->
<g id="edge20" class="edge">
<title>ragpon.domain.document_processing_pipeline&#45;&gt;ragpon.domain.domain</title>
<path fill="none" stroke="black" d="M1090.48,-396.18C1096.05,-416.77 1108.46,-450.65 1132.62,-468 1173.75,-497.52 1307.65,-511.05 1396.58,-516.91"/>
<polygon fill="black" stroke="black" points="1406.52,-517.54 1396.25,-521.4 1402.74,-517.3 1396.54,-516.9 1396.54,-516.9 1396.54,-516.9 1402.74,-517.3 1396.82,-512.41 1406.52,-517.54"/>
</g>
<!-- ragpon.domain.document_processing_pipeline&#45;&gt;ragpon.domain.metadata_generator -->
<g id="edge21" class="edge">
<title>ragpon.domain.document_processing_pipeline&#45;&gt;ragpon.domain.metadata_generator</title>
<path fill="none" stroke="black" d="M1050.66,-396.48C1031.7,-405.7 1008.25,-417.1 988.05,-426.92"/>
<polygon fill="black" stroke="black" points="979.22,-431.21 986.25,-422.79 982.63,-429.55 988.22,-426.83 988.22,-426.83 988.22,-426.83 982.63,-429.55 990.19,-430.88 979.22,-431.21"/>
</g>
<!-- ragpon.domain.document_reader&#45;&gt;ragpon._utils.logging_helper -->
<g id="edge22" class="edge">
<title>ragpon.domain.document_reader&#45;&gt;ragpon._utils.logging_helper</title>
<path fill="none" stroke="black" d="M1225.64,-468.41C1205.79,-493.14 1169.3,-538.59 1146.31,-567.23"/>
<polygon fill="black" stroke="black" points="1140.12,-574.94 1142.87,-564.32 1142.49,-571.99 1146.38,-567.14 1146.38,-567.14 1146.38,-567.14 1142.49,-571.99 1149.89,-569.96 1140.12,-574.94"/>
</g>
<!-- ragpon.domain.document_reader&#45;&gt;ragpon.domain.domain -->
<g id="edge23" class="edge">
<title>ragpon.domain.document_reader&#45;&gt;ragpon.domain.domain</title>
<path fill="none" stroke="black" d="M1299.56,-468.48C1332.91,-478.21 1374.59,-490.36 1409.44,-500.53"/>
<polygon fill="black" stroke="black" points="1418.86,-503.28 1408,-504.8 1415.23,-502.22 1409.26,-500.48 1409.26,-500.48 1409.26,-500.48 1415.23,-502.22 1410.52,-496.16 1418.86,-503.28"/>
</g>
<!-- ragpon.domain.domain&#45;&gt;ragpon._utils.logging_helper -->
<g id="edge24" class="edge">
<title>ragpon.domain.domain&#45;&gt;ragpon._utils.logging_helper</title>
<path fill="none" stroke="black" d="M1407.56,-537.25C1354.37,-547.77 1281.38,-562.2 1223,-573.74"/>
<polygon fill="black" stroke="black" points="1213.47,-575.63 1222.41,-569.27 1217.18,-574.89 1223.28,-573.69 1223.28,-573.69 1223.28,-573.69 1217.18,-574.89 1224.16,-578.1 1213.47,-575.63"/>
</g>
<!-- ragpon.domain.metadata_generator&#45;&gt;ragpon._utils.logging_helper -->
<g id="edge25" class="edge">
<title>ragpon.domain.metadata_generator&#45;&gt;ragpon._utils.logging_helper</title>
<path fill="none" stroke="black" d="M965.06,-468.41C997.53,-493.6 1057.73,-540.32 1094.48,-568.83"/>
<polygon fill="black" stroke="black" points="1102.32,-574.92 1091.66,-572.35 1099.33,-572.6 1094.42,-568.79 1094.42,-568.79 1094.42,-568.79 1099.33,-572.6 1097.18,-565.24 1102.32,-574.92"/>
</g>
<!-- ragpon.examples -->
<g id="node15" class="node">
<title>ragpon.examples</title>
<polygon fill="none" stroke="black" points="1281.12,-36 1172.12,-36 1172.12,0 1281.12,0 1281.12,-36"/>
<text text-anchor="middle" x="1226.62" y="-12.95" font-family="Times New Roman,serif" font-size="14.00">ragpon.examples</text>
</g>
<!-- ragpon.examples.basic_usage -->
<g id="node16" class="node">
<title>ragpon.examples.basic_usage</title>
<polygon fill="none" stroke="black" points="859.62,-36 681.62,-36 681.62,0 859.62,0 859.62,-36"/>
<text text-anchor="middle" x="770.62" y="-12.95" font-family="Times New Roman,serif" font-size="14.00">ragpon.examples.basic_usage</text>
</g>
<!-- ragpon.examples.basic_usage&#45;&gt;ragpon -->
<g id="edge26" class="edge">
<title>ragpon.examples.basic_usage&#45;&gt;ragpon</title>
<path fill="none" stroke="black" d="M770.62,-36.3C770.62,-43.68 770.62,-52.48 770.62,-60.75"/>
<polygon fill="black" stroke="black" points="770.62,-70.68 766.12,-60.68 770.62,-66.9 770.62,-60.68 770.62,-60.68 770.62,-60.68 770.62,-66.9 775.12,-60.68 770.62,-70.68"/>
</g>
<!-- ragpon.ml_models.embedding_model -->
<g id="node18" class="node">
<title>ragpon.ml_models.embedding_model</title>
<polygon fill="none" stroke="black" points="742.87,-396 518.37,-396 518.37,-360 742.87,-360 742.87,-396"/>
<text text-anchor="middle" x="630.62" y="-372.95" font-family="Times New Roman,serif" font-size="14.00">ragpon.ml_models.embedding_model</text>
</g>
<!-- ragpon.ml_models&#45;&gt;ragpon.ml_models.embedding_model -->
<g id="edge27" class="edge">
<title>ragpon.ml_models&#45;&gt;ragpon.ml_models.embedding_model</title>
<path fill="none" stroke="black" d="M470.82,-324.48C500.03,-334.08 536.45,-346.05 567.14,-356.14"/>
<polygon fill="black" stroke="black" points="576.57,-359.24 565.67,-360.39 572.98,-358.06 567.07,-356.12 567.07,-356.12 567.07,-356.12 572.98,-358.06 568.48,-351.84 576.57,-359.24"/>
</g>
<!-- ragpon.ml_models.large_language_model -->
<g id="node19" class="node">
<title>ragpon.ml_models.large_language_model</title>
<polygon fill="none" stroke="black" points="276.75,-396 30.5,-396 30.5,-360 276.75,-360 276.75,-396"/>
<text text-anchor="middle" x="153.62" y="-372.95" font-family="Times New Roman,serif" font-size="14.00">ragpon.ml_models.large_language_model</text>
</g>
<!-- ragpon.ml_models&#45;&gt;ragpon.ml_models.large_language_model -->
<g id="edge28" class="edge">
<title>ragpon.ml_models&#45;&gt;ragpon.ml_models.large_language_model</title>
<path fill="none" stroke="black" d="M358.05,-322.8C320.21,-332.83 270.88,-345.91 230.16,-356.7"/>
<polygon fill="black" stroke="black" points="220.64,-359.23 229.16,-352.32 224.3,-358.26 230.31,-356.67 230.31,-356.67 230.31,-356.67 224.3,-358.26 231.46,-361.02 220.64,-359.23"/>
</g>
<!-- ragpon.ml_models.reranker -->
<g id="node20" class="node">
<title>ragpon.ml_models.reranker</title>
<polygon fill="none" stroke="black" points="462.37,-396 294.87,-396 294.87,-360 462.37,-360 462.37,-396"/>
<text text-anchor="middle" x="378.62" y="-372.95" font-family="Times New Roman,serif" font-size="14.00">ragpon.ml_models.reranker</text>
</g>
<!-- ragpon.ml_models&#45;&gt;ragpon.ml_models.reranker -->
<g id="edge29" class="edge">
<title>ragpon.ml_models&#45;&gt;ragpon.ml_models.reranker</title>
<path fill="none" stroke="black" d="M407.98,-324.3C403.64,-332.1 398.4,-341.49 393.57,-350.17"/>
<polygon fill="black" stroke="black" points="388.74,-358.83 389.68,-347.91 390.58,-355.53 393.61,-350.1 393.61,-350.1 393.61,-350.1 390.58,-355.53 397.54,-352.29 388.74,-358.83"/>
</g>
<!-- ragpon.ml_models.embedding_model&#45;&gt;ragpon._utils.logging_helper -->
<g id="edge30" class="edge">
<title>ragpon.ml_models.embedding_model&#45;&gt;ragpon._utils.logging_helper</title>
<path fill="none" stroke="black" d="M623.83,-396.42C612.34,-429.11 593.65,-499.98 629.62,-540 655.71,-569.02 890.94,-583.45 1027.88,-589.45"/>
<polygon fill="black" stroke="black" points="1037.56,-589.86 1027.38,-593.93 1033.78,-589.7 1027.57,-589.43 1027.57,-589.43 1027.57,-589.43 1033.78,-589.7 1027.77,-584.94 1037.56,-589.86"/>
</g>
<!-- ragpon.ml_models.embedding_model&#45;&gt;ragpon.config -->
<g id="edge31" class="edge">
<title>ragpon.ml_models.embedding_model&#45;&gt;ragpon.config</title>
<path fill="none" stroke="black" d="M567.68,-396.48C527.17,-407.74 474.95,-422.24 435.65,-433.16"/>
<polygon fill="black" stroke="black" points="426.11,-435.81 434.54,-428.8 429.75,-434.8 435.74,-433.13 435.74,-433.13 435.74,-433.13 429.75,-434.8 436.95,-437.47 426.11,-435.81"/>
</g>
<!-- ragpon.ml_models.large_language_model&#45;&gt;ragpon._utils.logging_helper -->
<g id="edge32" class="edge">
<title>ragpon.ml_models.large_language_model&#45;&gt;ragpon._utils.logging_helper</title>
<path fill="none" stroke="black" d="M153.13,-396.34C153.21,-430.22 158.77,-504.94 203.62,-540 267.36,-589.83 803.75,-594.03 1027.85,-593.58"/>
<polygon fill="black" stroke="black" points="1037.71,-593.55 1027.72,-598.08 1033.93,-593.56 1027.71,-593.58 1027.71,-593.58 1027.71,-593.58 1033.93,-593.56 1027.7,-589.08 1037.71,-593.55"/>
</g>
<!-- ragpon.ml_models.large_language_model&#45;&gt;ragpon.config -->
<g id="edge33" class="edge">
<title>ragpon.ml_models.large_language_model&#45;&gt;ragpon.config</title>
<path fill="none" stroke="black" d="M209.82,-396.48C244.14,-407.16 287.89,-420.77 322.25,-431.46"/>
<polygon fill="black" stroke="black" points="331.43,-434.32 320.54,-435.64 327.82,-433.19 321.88,-431.35 321.88,-431.35 321.88,-431.35 327.82,-433.19 323.22,-427.05 331.43,-434.32"/>
</g>
<!-- ragpon.ml_models.reranker&#45;&gt;ragpon._utils.logging_helper -->
<g id="edge34" class="edge">
<title>ragpon.ml_models.reranker&#45;&gt;ragpon._utils.logging_helper</title>
<path fill="none" stroke="black" d="M338.93,-396.41C277.27,-425.7 170.51,-486.87 220.62,-540 248,-569.03 799.96,-585.32 1028.17,-590.85"/>
<polygon fill="black" stroke="black" points="1037.9,-591.08 1027.8,-595.34 1034.12,-590.99 1027.91,-590.84 1027.91,-590.84 1027.91,-590.84 1034.12,-590.99 1028.02,-586.34 1037.9,-591.08"/>
</g>
<!-- ragpon.ml_models.reranker&#45;&gt;ragpon.config -->
<g id="edge35" class="edge">
<title>ragpon.ml_models.reranker&#45;&gt;ragpon.config</title>
<path fill="none" stroke="black" d="M378.62,-396.3C378.62,-403.68 378.62,-412.48 378.62,-420.75"/>
<polygon fill="black" stroke="black" points="378.62,-430.68 374.12,-420.68 378.62,-426.9 378.62,-420.68 378.62,-420.68 378.62,-420.68 378.62,-426.9 383.12,-420.68 378.62,-430.68"/>
</g>
<!-- ragpon.ml_models.reranker&#45;&gt;ragpon.domain.domain -->
<g id="edge36" class="edge">
<title>ragpon.ml_models.reranker&#45;&gt;ragpon.domain.domain</title>
<path fill="none" stroke="black" d="M422.55,-396.38C477.65,-417.34 575.51,-451.77 662.62,-468 801.56,-493.89 1217.63,-511.54 1396.45,-518.13"/>
<polygon fill="black" stroke="black" points="1406.4,-518.49 1396.25,-522.62 1402.63,-518.35 1396.41,-518.13 1396.41,-518.13 1396.41,-518.13 1402.63,-518.35 1396.58,-513.63 1406.4,-518.49"/>
</g>
<!-- ragpon.repository.abstract_repository -->
<g id="node22" class="node">
<title>ragpon.repository.abstract_repository</title>
<polygon fill="none" stroke="black" points="1791.87,-396 1573.37,-396 1573.37,-360 1791.87,-360 1791.87,-396"/>
<text text-anchor="middle" x="1682.62" y="-372.95" font-family="Times New Roman,serif" font-size="14.00">ragpon.repository.abstract_repository</text>
</g>
<!-- ragpon.repository&#45;&gt;ragpon.repository.abstract_repository -->
<g id="edge37" class="edge">
<title>ragpon.repository&#45;&gt;ragpon.repository.abstract_repository</title>
<path fill="none" stroke="black" d="M1690.9,-180.15C1689.35,-216.93 1685.7,-303.71 1683.81,-348.76"/>
<polygon fill="black" stroke="black" points="1683.4,-358.55 1679.32,-348.37 1683.56,-354.77 1683.82,-348.56 1683.82,-348.56 1683.82,-348.56 1683.56,-354.77 1688.31,-348.75 1683.4,-358.55"/>
</g>
<!-- ragpon.repository.bm25 -->
<g id="node23" class="node">
<title>ragpon.repository.bm25</title>
<polygon fill="none" stroke="black" points="2193.87,-252 2047.37,-252 2047.37,-216 2193.87,-216 2193.87,-252"/>
<text text-anchor="middle" x="2120.62" y="-228.95" font-family="Times New Roman,serif" font-size="14.00">ragpon.repository.bm25</text>
</g>
<!-- ragpon.repository&#45;&gt;ragpon.repository.bm25 -->
<g id="edge38" class="edge">
<title>ragpon.repository&#45;&gt;ragpon.repository.bm25</title>
<path fill="none" stroke="black" d="M1747.71,-172.15C1821.14,-184.13 1950.54,-205.25 2035.94,-219.18"/>
<polygon fill="black" stroke="black" points="2045.71,-220.78 2035.11,-223.61 2041.97,-220.17 2035.84,-219.17 2035.84,-219.17 2035.84,-219.17 2041.97,-220.17 2036.56,-214.72 2045.71,-220.78"/>
</g>
<!-- ragpon.repository.chromaDB_repository -->
<g id="node28" class="node">
<title>ragpon.repository.chromaDB_repository</title>
<polygon fill="none" stroke="black" points="1663.87,-324 1427.37,-324 1427.37,-288 1663.87,-288 1663.87,-324"/>
<text text-anchor="middle" x="1545.62" y="-300.95" font-family="Times New Roman,serif" font-size="14.00">ragpon.repository.chromaDB_repository</text>
</g>
<!-- ragpon.repository&#45;&gt;ragpon.repository.chromaDB_repository -->
<g id="edge39" class="edge">
<title>ragpon.repository&#45;&gt;ragpon.repository.chromaDB_repository</title>
<path fill="none" stroke="black" d="M1673.72,-180.41C1647.97,-205.46 1600.34,-251.78 1570.98,-280.34"/>
<polygon fill="black" stroke="black" points="1564.09,-287.04 1568.12,-276.84 1566.8,-284.4 1571.26,-280.07 1571.26,-280.07 1571.26,-280.07 1566.8,-284.4 1574.39,-283.29 1564.09,-287.04"/>
</g>
<!-- ragpon.repository.search_results_formatter -->
<g id="node29" class="node">
<title>ragpon.repository.search_results_formatter</title>
<polygon fill="none" stroke="black" points="1795.25,-468 1546,-468 1546,-432 1795.25,-432 1795.25,-468"/>
<text text-anchor="middle" x="1670.62" y="-444.95" font-family="Times New Roman,serif" font-size="14.00">ragpon.repository.search_results_formatter</text>
</g>
<!-- ragpon.repository&#45;&gt;ragpon.repository.search_results_formatter -->
<g id="edge40" class="edge">
<title>ragpon.repository&#45;&gt;ragpon.repository.search_results_formatter</title>
<path fill="none" stroke="black" d="M1711.49,-180.33C1754.94,-220.35 1850.7,-321.5 1800.62,-396 1791.67,-409.31 1778.73,-419.28 1764.45,-426.75"/>
<polygon fill="black" stroke="black" points="1755.47,-431.01 1762.58,-422.65 1758.89,-429.39 1764.51,-426.72 1764.51,-426.72 1764.51,-426.72 1758.89,-429.39 1766.44,-430.79 1755.47,-431.01"/>
</g>
<!-- ragpon.repository.abstract_repository&#45;&gt;ragpon._utils.logging_helper -->
<g id="edge41" class="edge">
<title>ragpon.repository.abstract_repository&#45;&gt;ragpon._utils.logging_helper</title>
<path fill="none" stroke="black" d="M1758.79,-396.38C1776.79,-404.23 1793.86,-415.59 1804.62,-432 1813.4,-445.38 1813.84,-454.92 1804.62,-468 1738.84,-561.28 1395.16,-584.95 1223.46,-590.96"/>
<polygon fill="black" stroke="black" points="1213.62,-591.29 1223.46,-586.45 1217.4,-591.16 1223.61,-590.95 1223.61,-590.95 1223.61,-590.95 1217.4,-591.16 1223.76,-595.45 1213.62,-591.29"/>
</g>
<!-- ragpon.repository.abstract_repository&#45;&gt;ragpon.domain.domain -->
<g id="edge42" class="edge">
<title>ragpon.repository.abstract_repository&#45;&gt;ragpon.domain.domain</title>
<path fill="none" stroke="black" d="M1606.13,-396.41C1582.16,-404.45 1556.73,-415.91 1536.62,-432 1516.31,-448.25 1501.02,-473.79 1491.41,-493.35"/>
<polygon fill="black" stroke="black" points="1487.18,-502.4 1487.34,-491.44 1488.78,-498.98 1491.41,-493.34 1491.41,-493.34 1491.41,-493.34 1488.78,-498.98 1495.49,-495.25 1487.18,-502.4"/>
</g>
<!-- ragpon.repository.bm25.bm25_calculators -->
<g id="node24" class="node">
<title>ragpon.repository.bm25.bm25_calculators</title>
<polygon fill="none" stroke="black" points="2543.12,-396 2296.12,-396 2296.12,-360 2543.12,-360 2543.12,-396"/>
<text text-anchor="middle" x="2419.62" y="-372.95" font-family="Times New Roman,serif" font-size="14.00">ragpon.repository.bm25.bm25_calculators</text>
</g>
<!-- ragpon.repository.bm25&#45;&gt;ragpon.repository.bm25.bm25_calculators -->
<g id="edge43" class="edge">
<title>ragpon.repository.bm25&#45;&gt;ragpon.repository.bm25.bm25_calculators</title>
<path fill="none" stroke="black" d="M2186.33,-252.49C2216.11,-261.46 2251.35,-273.55 2281.62,-288 2320.05,-306.35 2360.62,-333.59 2387.75,-353.1"/>
<polygon fill="black" stroke="black" points="2395.77,-358.93 2385.04,-356.69 2392.72,-356.71 2387.69,-353.05 2387.69,-353.05 2387.69,-353.05 2392.72,-356.71 2390.33,-349.41 2395.77,-358.93"/>
</g>
<!-- ragpon.repository.bm25.bm25_repository -->
<g id="node25" class="node">
<title>ragpon.repository.bm25.bm25_repository</title>
<polygon fill="none" stroke="black" points="2092.25,-324 1849,-324 1849,-288 2092.25,-288 2092.25,-324"/>
<text text-anchor="middle" x="1970.62" y="-300.95" font-family="Times New Roman,serif" font-size="14.00">ragpon.repository.bm25.bm25_repository</text>
</g>
<!-- ragpon.repository.bm25&#45;&gt;ragpon.repository.bm25.bm25_repository -->
<g id="edge44" class="edge">
<title>ragpon.repository.bm25&#45;&gt;ragpon.repository.bm25.bm25_repository</title>
<path fill="none" stroke="black" d="M2083.16,-252.48C2063.4,-261.71 2038.95,-273.11 2017.9,-282.94"/>
<polygon fill="black" stroke="black" points="2008.97,-287.1 2016.13,-278.8 2012.4,-285.5 2018.03,-282.87 2018.03,-282.87 2018.03,-282.87 2012.4,-285.5 2019.94,-286.95 2008.97,-287.1"/>
</g>
<!-- ragpon.repository.bm25.managers -->
<g id="node26" class="node">
<title>ragpon.repository.bm25.managers</title>
<polygon fill="none" stroke="black" points="2202,-396 1999.25,-396 1999.25,-360 2202,-360 2202,-396"/>
<text text-anchor="middle" x="2100.62" y="-372.95" font-family="Times New Roman,serif" font-size="14.00">ragpon.repository.bm25.managers</text>
</g>
<!-- ragpon.repository.bm25&#45;&gt;ragpon.repository.bm25.managers -->
<g id="edge45" class="edge">
<title>ragpon.repository.bm25&#45;&gt;ragpon.repository.bm25.managers</title>
<path fill="none" stroke="black" d="M2118.17,-252.41C2114.78,-276.5 2108.62,-320.25 2104.57,-348.97"/>
<polygon fill="black" stroke="black" points="2103.2,-358.68 2100.14,-348.15 2103.73,-354.94 2104.6,-348.78 2104.6,-348.78 2104.6,-348.78 2103.73,-354.94 2109.05,-349.41 2103.2,-358.68"/>
</g>
<!-- ragpon.repository.bm25.models -->
<g id="node27" class="node">
<title>ragpon.repository.bm25.models</title>
<polygon fill="none" stroke="black" points="2322.62,-468 2132.62,-468 2132.62,-432 2322.62,-432 2322.62,-468"/>
<text text-anchor="middle" x="2227.62" y="-444.95" font-family="Times New Roman,serif" font-size="14.00">ragpon.repository.bm25.models</text>
</g>
<!-- ragpon.repository.bm25&#45;&gt;ragpon.repository.bm25.models -->
<g id="edge46" class="edge">
<title>ragpon.repository.bm25&#45;&gt;ragpon.repository.bm25.models</title>
<path fill="none" stroke="black" d="M2144.06,-252.18C2171.34,-273.79 2214.93,-313.73 2232.62,-360 2240.01,-379.33 2238.32,-402.74 2235.01,-420.71"/>
<polygon fill="black" stroke="black" points="2232.94,-430.43 2230.63,-419.72 2233.73,-426.74 2235.03,-420.65 2235.03,-420.65 2235.03,-420.65 2233.73,-426.74 2239.43,-421.59 2232.94,-430.43"/>
</g>
<!-- ragpon.repository.bm25.bm25_calculators&#45;&gt;ragpon._utils.logging_helper -->
<g id="edge47" class="edge">
<title>ragpon.repository.bm25.bm25_calculators&#45;&gt;ragpon._utils.logging_helper</title>
<path fill="none" stroke="black" d="M2414,-396.22C2406.63,-416.2 2391.84,-448.85 2368.62,-468 2292.18,-531.05 2254.92,-521.28 2157.62,-540 1980.48,-574.08 1444.79,-587.32 1223.19,-591.44"/>
<polygon fill="black" stroke="black" points="1213.46,-591.61 1223.38,-586.93 1217.24,-591.54 1223.46,-591.43 1223.46,-591.43 1223.46,-591.43 1217.24,-591.54 1223.54,-595.93 1213.46,-591.61"/>
</g>
<!-- ragpon.repository.bm25.bm25_calculators&#45;&gt;ragpon.domain.domain -->
<g id="edge48" class="edge">
<title>ragpon.repository.bm25.bm25_calculators&#45;&gt;ragpon.domain.domain</title>
<path fill="none" stroke="black" d="M2408.41,-396.46C2393.67,-417.68 2365.65,-452.54 2331.62,-468 2262.85,-499.26 1763.15,-514.35 1562.59,-519.19"/>
<polygon fill="black" stroke="black" points="1552.76,-519.43 1562.65,-514.69 1556.54,-519.34 1562.76,-519.19 1562.76,-519.19 1562.76,-519.19 1556.54,-519.34 1562.87,-523.69 1552.76,-519.43"/>
</g>
<!-- ragpon.repository.bm25.bm25_calculators&#45;&gt;ragpon.repository.bm25.models -->
<g id="edge49" class="edge">
<title>ragpon.repository.bm25.bm25_calculators&#45;&gt;ragpon.repository.bm25.models</title>
<path fill="none" stroke="black" d="M2371.67,-396.48C2345.57,-406 2313.08,-417.84 2285.57,-427.87"/>
<polygon fill="black" stroke="black" points="2276.44,-431.2 2284.3,-423.55 2279.99,-429.91 2285.84,-427.78 2285.84,-427.78 2285.84,-427.78 2279.99,-429.91 2287.38,-432 2276.44,-431.2"/>
</g>
<!-- ragpon.tokenizer -->
<g id="node32" class="node">
<title>ragpon.tokenizer</title>
<polygon fill="none" stroke="black" points="2073.37,-468 1965.87,-468 1965.87,-432 2073.37,-432 2073.37,-468"/>
<text text-anchor="middle" x="2019.62" y="-444.95" font-family="Times New Roman,serif" font-size="14.00">ragpon.tokenizer</text>
</g>
<!-- ragpon.repository.bm25.bm25_calculators&#45;&gt;ragpon.tokenizer -->
<g id="edge50" class="edge">
<title>ragpon.repository.bm25.bm25_calculators&#45;&gt;ragpon.tokenizer</title>
<path fill="none" stroke="black" d="M2319.72,-396.48C2246.11,-409.36 2148.13,-426.51 2084.47,-437.65"/>
<polygon fill="black" stroke="black" points="2074.98,-439.31 2084.06,-433.16 2078.71,-438.66 2084.83,-437.59 2084.83,-437.59 2084.83,-437.59 2078.71,-438.66 2085.61,-442.02 2074.98,-439.31"/>
</g>
<!-- ragpon.repository.bm25.bm25_repository&#45;&gt;ragpon._utils.logging_helper -->
<g id="edge51" class="edge">
<title>ragpon.repository.bm25.bm25_repository&#45;&gt;ragpon._utils.logging_helper</title>
<path fill="none" stroke="black" d="M1960.18,-324.28C1930.62,-371.18 1840.97,-499.99 1725.62,-540 1635.53,-571.25 1369.29,-584.87 1223.61,-590.12"/>
<polygon fill="black" stroke="black" points="1213.69,-590.47 1223.52,-585.62 1217.47,-590.34 1223.68,-590.12 1223.68,-590.12 1223.68,-590.12 1217.47,-590.34 1223.84,-594.62 1213.69,-590.47"/>
</g>
<!-- ragpon.repository.bm25.bm25_repository&#45;&gt;ragpon.domain.domain -->
<g id="edge52" class="edge">
<title>ragpon.repository.bm25.bm25_repository&#45;&gt;ragpon.domain.domain</title>
<path fill="none" stroke="black" d="M1934.09,-324.3C1917.02,-333.45 1897.1,-345.75 1881.62,-360 1838.26,-399.93 1854.68,-436.86 1804.62,-468 1765.29,-492.47 1645.52,-507.2 1562.92,-514.71"/>
<polygon fill="black" stroke="black" points="1552.99,-515.59 1562.55,-510.23 1556.75,-515.26 1562.95,-514.71 1562.95,-514.71 1562.95,-514.71 1556.75,-515.26 1563.34,-519.19 1552.99,-515.59"/>
</g>
<!-- ragpon.repository.bm25.bm25_repository&#45;&gt;ragpon.repository.abstract_repository -->
<g id="edge53" class="edge">
<title>ragpon.repository.bm25.bm25_repository&#45;&gt;ragpon.repository.abstract_repository</title>
<path fill="none" stroke="black" d="M1898.69,-324.48C1858.07,-334.36 1807.15,-346.73 1764.95,-356.99"/>
<polygon fill="black" stroke="black" points="1755.32,-359.33 1763.97,-352.6 1758.99,-358.44 1765.04,-356.97 1765.04,-356.97 1765.04,-356.97 1758.99,-358.44 1766.1,-361.34 1755.32,-359.33"/>
</g>
<!-- ragpon.repository.bm25.bm25_repository&#45;&gt;ragpon.repository.bm25.bm25_calculators -->
<g id="edge54" class="edge">
<title>ragpon.repository.bm25.bm25_repository&#45;&gt;ragpon.repository.bm25.bm25_calculators</title>
<path fill="none" stroke="black" d="M2082.76,-324.48C2147.85,-334.63 2229.9,-347.42 2296.73,-357.84"/>
<polygon fill="black" stroke="black" points="2306.54,-359.37 2295.96,-362.28 2302.8,-358.79 2296.66,-357.83 2296.66,-357.83 2296.66,-357.83 2302.8,-358.79 2297.35,-353.38 2306.54,-359.37"/>
</g>
<!-- ragpon.repository.bm25.bm25_repository&#45;&gt;ragpon.repository.bm25.managers -->
<g id="edge55" class="edge">
<title>ragpon.repository.bm25.bm25_repository&#45;&gt;ragpon.repository.bm25.managers</title>
<path fill="none" stroke="black" d="M2003.09,-324.48C2019.97,-333.57 2040.79,-344.78 2058.86,-354.51"/>
<polygon fill="black" stroke="black" points="2067.49,-359.16 2056.56,-358.38 2064.16,-357.37 2058.69,-354.42 2058.69,-354.42 2058.69,-354.42 2064.16,-357.37 2060.82,-350.46 2067.49,-359.16"/>
</g>
<!-- ragpon.repository.bm25.bm25_repository&#45;&gt;ragpon.repository.bm25.models -->
<g id="edge56" class="edge">
<title>ragpon.repository.bm25.bm25_repository&#45;&gt;ragpon.repository.bm25.models</title>
<path fill="none" stroke="black" d="M2092.62,-321.4C2142.92,-329.81 2193.45,-342.33 2210.62,-360 2226.04,-375.86 2229.65,-401.15 2229.77,-420.72"/>
<polygon fill="black" stroke="black" points="2229.52,-430.54 2225.28,-420.42 2229.61,-426.76 2229.77,-420.54 2229.77,-420.54 2229.77,-420.54 2229.61,-426.76 2234.27,-420.66 2229.52,-430.54"/>
</g>
<!-- ragpon.repository.bm25.bm25_repository&#45;&gt;ragpon.tokenizer -->
<g id="edge57" class="edge">
<title>ragpon.repository.bm25.bm25_repository&#45;&gt;ragpon.tokenizer</title>
<path fill="none" stroke="black" d="M1973.07,-324.48C1975.96,-342.73 1981.56,-372 1990.62,-396 1993.99,-404.93 1998.63,-414.21 2003.21,-422.46"/>
<polygon fill="black" stroke="black" points="2008.07,-430.87 1999.17,-424.46 2006.18,-427.59 2003.06,-422.21 2003.06,-422.21 2003.06,-422.21 2006.18,-427.59 2006.96,-419.96 2008.07,-430.87"/>
</g>
<!-- ragpon.repository.bm25.managers&#45;&gt;ragpon._utils.logging_helper -->
<g id="edge58" class="edge">
<title>ragpon.repository.bm25.managers&#45;&gt;ragpon._utils.logging_helper</title>
<path fill="none" stroke="black" d="M2101.22,-396.42C2101.01,-415.7 2098.02,-446.84 2082.62,-468 2044.22,-520.78 2017.2,-521.45 1954.62,-540 1820.24,-579.83 1411.99,-589.73 1223.24,-592.19"/>
<polygon fill="black" stroke="black" points="1213.44,-592.31 1223.38,-587.69 1217.22,-592.26 1223.44,-592.19 1223.44,-592.19 1223.44,-592.19 1217.22,-592.26 1223.5,-596.69 1213.44,-592.31"/>
</g>
<!-- ragpon.repository.bm25.managers&#45;&gt;ragpon.domain.domain -->
<g id="edge59" class="edge">
<title>ragpon.repository.bm25.managers&#45;&gt;ragpon.domain.domain</title>
<path fill="none" stroke="black" d="M2050.66,-396.48C2022.81,-406.45 1987.6,-419.43 1956.62,-432 1920.12,-446.81 1913.53,-457.28 1875.62,-468 1770.12,-497.84 1643.93,-511.04 1562.82,-516.77"/>
<polygon fill="black" stroke="black" points="1552.9,-517.44 1562.57,-512.27 1556.67,-517.19 1562.88,-516.76 1562.88,-516.76 1562.88,-516.76 1556.67,-517.19 1563.18,-521.25 1552.9,-517.44"/>
</g>
<!-- ragpon.repository.bm25.managers&#45;&gt;ragpon.repository.bm25.models -->
<g id="edge60" class="edge">
<title>ragpon.repository.bm25.managers&#45;&gt;ragpon.repository.bm25.models</title>
<path fill="none" stroke="black" d="M2132.34,-396.48C2148.83,-405.57 2169.17,-416.78 2186.82,-426.51"/>
<polygon fill="black" stroke="black" points="2195.24,-431.15 2184.31,-430.27 2191.93,-429.33 2186.48,-426.32 2186.48,-426.32 2186.48,-426.32 2191.93,-429.33 2188.65,-422.38 2195.24,-431.15"/>
</g>
<!-- ragpon.repository.bm25.managers&#45;&gt;ragpon.tokenizer -->
<g id="edge61" class="edge">
<title>ragpon.repository.bm25.managers&#45;&gt;ragpon.tokenizer</title>
<path fill="none" stroke="black" d="M2080.6,-396.3C2070.77,-404.8 2058.75,-415.19 2047.99,-424.49"/>
<polygon fill="black" stroke="black" points="2040.62,-430.86 2045.24,-420.91 2043.48,-428.38 2048.18,-424.32 2048.18,-424.32 2048.18,-424.32 2043.48,-428.38 2051.12,-427.72 2040.62,-430.86"/>
</g>
<!-- ragpon.repository.bm25.models&#45;&gt;ragpon._utils.logging_helper -->
<g id="edge62" class="edge">
<title>ragpon.repository.bm25.models&#45;&gt;ragpon._utils.logging_helper</title>
<path fill="none" stroke="black" d="M2212.61,-468.2C2192.82,-489.48 2155.8,-524.76 2115.62,-540 2033.78,-571.04 1456.92,-586.21 1223.4,-591.14"/>
<polygon fill="black" stroke="black" points="1213.43,-591.35 1223.33,-586.64 1217.21,-591.27 1223.43,-591.14 1223.43,-591.14 1223.43,-591.14 1217.21,-591.27 1223.52,-595.64 1213.43,-591.35"/>
</g>
<!-- ragpon.repository.bm25.models&#45;&gt;ragpon.domain.domain -->
<g id="edge63" class="edge">
<title>ragpon.repository.bm25.models&#45;&gt;ragpon.domain.domain</title>
<path fill="none" stroke="black" d="M2132.51,-462.55C2115.89,-464.46 2098.76,-466.35 2082.62,-468 1897.03,-487.03 1678.87,-505.15 1562.56,-514.48"/>
<polygon fill="black" stroke="black" points="1552.84,-515.25 1562.45,-509.97 1556.61,-514.95 1562.8,-514.46 1562.8,-514.46 1562.8,-514.46 1556.61,-514.95 1563.16,-518.94 1552.84,-515.25"/>
</g>
<!-- ragpon.repository.chromaDB_repository&#45;&gt;ragpon._utils.logging_helper -->
<g id="edge64" class="edge">
<title>ragpon.repository.chromaDB_repository&#45;&gt;ragpon._utils.logging_helper</title>
<path fill="none" stroke="black" d="M1526.41,-324.36C1491.83,-355.17 1416.24,-420.62 1346.62,-468 1288.01,-507.88 1215.81,-546.99 1170.24,-570.56"/>
<polygon fill="black" stroke="black" points="1161.45,-575.07 1168.29,-566.5 1164.82,-573.34 1170.35,-570.5 1170.35,-570.5 1170.35,-570.5 1164.82,-573.34 1172.4,-574.5 1161.45,-575.07"/>
</g>
<!-- ragpon.repository.chromaDB_repository&#45;&gt;ragpon.domain.domain -->
<g id="edge65" class="edge">
<title>ragpon.repository.chromaDB_repository&#45;&gt;ragpon.domain.domain</title>
<path fill="none" stroke="black" d="M1539.21,-324.25C1530.4,-348.24 1514.32,-393.1 1502.62,-432 1496.51,-452.31 1490.55,-475.52 1486.23,-493.14"/>
<polygon fill="black" stroke="black" points="1483.92,-502.64 1481.9,-491.87 1484.81,-498.97 1486.28,-492.92 1486.28,-492.92 1486.28,-492.92 1484.81,-498.97 1490.65,-493.98 1483.92,-502.64"/>
</g>
<!-- ragpon.repository.chromaDB_repository&#45;&gt;ragpon.ml_models.embedding_model -->
<g id="edge66" class="edge">
<title>ragpon.repository.chromaDB_repository&#45;&gt;ragpon.ml_models.embedding_model</title>
<path fill="none" stroke="black" d="M1426.99,-319.23C1409.44,-320.91 1391.57,-322.55 1374.62,-324 1156.39,-342.62 901.75,-359.77 754.08,-369.27"/>
<polygon fill="black" stroke="black" points="744.41,-369.89 754.1,-364.76 748.18,-369.64 754.39,-369.25 754.39,-369.25 754.39,-369.25 748.18,-369.64 754.68,-373.74 744.41,-369.89"/>
</g>
<!-- ragpon.repository.chromaDB_repository&#45;&gt;ragpon.repository.abstract_repository -->
<g id="edge67" class="edge">
<title>ragpon.repository.chromaDB_repository&#45;&gt;ragpon.repository.abstract_repository</title>
<path fill="none" stroke="black" d="M1579.84,-324.48C1597.71,-333.61 1619.77,-344.89 1638.87,-354.65"/>
<polygon fill="black" stroke="black" points="1647.76,-359.19 1636.8,-358.64 1644.39,-357.46 1638.85,-354.64 1638.85,-354.64 1638.85,-354.64 1644.39,-357.46 1640.9,-350.63 1647.76,-359.19"/>
</g>
<!-- ragpon.repository.chromaDB_repository&#45;&gt;ragpon.repository.search_results_formatter -->
<g id="edge68" class="edge">
<title>ragpon.repository.chromaDB_repository&#45;&gt;ragpon.repository.search_results_formatter</title>
<path fill="none" stroke="black" d="M1545.06,-324.23C1545.31,-343.62 1548.47,-375.14 1564.62,-396 1574.75,-409.08 1588.96,-419.17 1603.71,-426.86"/>
<polygon fill="black" stroke="black" points="1612.34,-431.04 1601.38,-430.73 1608.93,-429.39 1603.34,-426.68 1603.34,-426.68 1603.34,-426.68 1608.93,-429.39 1605.3,-422.63 1612.34,-431.04"/>
</g>
<!-- ragpon.repository.search_results_formatter&#45;&gt;ragpon._utils.logging_helper -->
<g id="edge69" class="edge">
<title>ragpon.repository.search_results_formatter&#45;&gt;ragpon._utils.logging_helper</title>
<path fill="none" stroke="black" d="M1655.09,-468.5C1635.39,-489.41 1599.3,-523.61 1560.62,-540 1501.7,-564.96 1332.38,-580 1223.19,-587.38"/>
<polygon fill="black" stroke="black" points="1213.38,-588.04 1223.06,-582.88 1217.15,-587.79 1223.36,-587.37 1223.36,-587.37 1223.36,-587.37 1217.15,-587.79 1223.66,-591.86 1213.38,-588.04"/>
</g>
<!-- ragpon.repository.search_results_formatter&#45;&gt;ragpon.domain.domain -->
<g id="edge70" class="edge">
<title>ragpon.repository.search_results_formatter&#45;&gt;ragpon.domain.domain</title>
<path fill="none" stroke="black" d="M1622.92,-468.48C1596.95,-478 1564.64,-489.84 1537.27,-499.87"/>
<polygon fill="black" stroke="black" points="1528.19,-503.2 1536.03,-495.53 1531.74,-501.9 1537.58,-499.76 1537.58,-499.76 1537.58,-499.76 1531.74,-501.9 1539.13,-503.98 1528.19,-503.2"/>
</g>
<!-- ragpon.service.document_processing_service -->
<g id="node31" class="node">
<title>ragpon.service.document_processing_service</title>
<polygon fill="none" stroke="black" points="1016,-252 753.25,-252 753.25,-216 1016,-216 1016,-252"/>
<text text-anchor="middle" x="884.62" y="-228.95" font-family="Times New Roman,serif" font-size="14.00">ragpon.service.document_processing_service</text>
</g>
<!-- ragpon.service&#45;&gt;ragpon.service.document_processing_service -->
<g id="edge71" class="edge">
<title>ragpon.service&#45;&gt;ragpon.service.document_processing_service</title>
<path fill="none" stroke="black" d="M841.71,-180.3C848.34,-188.44 856.37,-198.31 863.69,-207.3"/>
<polygon fill="black" stroke="black" points="869.92,-214.95 860.12,-210.04 867.54,-212.02 863.61,-207.2 863.61,-207.2 863.61,-207.2 867.54,-212.02 867.1,-204.36 869.92,-214.95"/>
</g>
<!-- ragpon.service.document_processing_service&#45;&gt;ragpon._utils.logging_helper -->
<g id="edge72" class="edge">
<title>ragpon.service.document_processing_service&#45;&gt;ragpon._utils.logging_helper</title>
<path fill="none" stroke="black" d="M874.37,-252.44C854.51,-284.87 807.77,-354.86 751.62,-396 717.2,-421.22 686.47,-396.62 662.62,-432 653.68,-445.27 653.2,-455.07 662.62,-468 705.44,-526.74 905.23,-563.5 1027.95,-580.94"/>
<polygon fill="black" stroke="black" points="1037.64,-582.3 1027.11,-585.37 1033.9,-581.77 1027.74,-580.91 1027.74,-580.91 1027.74,-580.91 1033.9,-581.77 1028.36,-576.45 1037.64,-582.3"/>
</g>
<!-- ragpon.service.document_processing_service&#45;&gt;ragpon.chunk_processor -->
<g id="edge73" class="edge">
<title>ragpon.service.document_processing_service&#45;&gt;ragpon.chunk_processor</title>
<path fill="none" stroke="black" d="M881.51,-252.18C875.12,-283.57 858.05,-351.08 822.62,-396 813.49,-407.58 801.15,-417.61 789.02,-425.74"/>
<polygon fill="black" stroke="black" points="780.87,-430.92 786.89,-421.76 784.06,-428.89 789.3,-425.56 789.3,-425.56 789.3,-425.56 784.06,-428.89 791.72,-429.35 780.87,-430.92"/>
</g>
<!-- ragpon.service.document_processing_service&#45;&gt;ragpon.config -->
<g id="edge74" class="edge">
<title>ragpon.service.document_processing_service&#45;&gt;ragpon.config</title>
<path fill="none" stroke="black" d="M818.22,-252.45C784.92,-261.84 744.21,-274.3 708.62,-288 673.74,-301.43 667.55,-310.71 632.62,-324 579.38,-344.25 559.01,-331.62 509.62,-360 489.45,-371.59 490.31,-382.14 471.62,-396 456.67,-407.09 439.17,-417.62 423.41,-426.33"/>
<polygon fill="black" stroke="black" points="414.94,-430.92 421.58,-422.2 418.26,-429.12 423.73,-426.16 423.73,-426.16 423.73,-426.16 418.26,-429.12 425.87,-430.11 414.94,-430.92"/>
</g>
<!-- ragpon.service.document_processing_service&#45;&gt;ragpon.domain.document_processing_pipeline -->
<g id="edge75" class="edge">
<title>ragpon.service.document_processing_service&#45;&gt;ragpon.domain.document_processing_pipeline</title>
<path fill="none" stroke="black" d="M909.39,-252.41C945.46,-277.76 1012.53,-324.91 1053.02,-353.38"/>
<polygon fill="black" stroke="black" points="1060.97,-358.97 1050.2,-356.9 1057.88,-356.79 1052.79,-353.22 1052.79,-353.22 1052.79,-353.22 1057.88,-356.79 1055.38,-349.53 1060.97,-358.97"/>
</g>
<!-- ragpon.service.document_processing_service&#45;&gt;ragpon.domain.document_reader -->
<g id="edge76" class="edge">
<title>ragpon.service.document_processing_service&#45;&gt;ragpon.domain.document_reader</title>
<path fill="none" stroke="black" d="M1016.23,-247.98C1091.39,-262.66 1180.56,-293.85 1231.62,-360 1244.73,-376.98 1246.01,-401.59 1244.42,-420.63"/>
<polygon fill="black" stroke="black" points="1243.27,-430.43 1239.96,-419.98 1243.71,-426.68 1244.43,-420.5 1244.43,-420.5 1244.43,-420.5 1243.71,-426.68 1248.9,-421.02 1243.27,-430.43"/>
</g>
<!-- ragpon.service.document_processing_service&#45;&gt;ragpon.domain.domain -->
<g id="edge77" class="edge">
<title>ragpon.service.document_processing_service&#45;&gt;ragpon.domain.domain</title>
<path fill="none" stroke="black" d="M1016.28,-234.81C1141.66,-237.15 1319.21,-247.81 1374.62,-288 1442.95,-337.57 1467.71,-442.14 1475.92,-492.59"/>
<polygon fill="black" stroke="black" points="1477.41,-502.42 1471.46,-493.21 1476.84,-498.68 1475.91,-492.53 1475.91,-492.53 1475.91,-492.53 1476.84,-498.68 1480.36,-491.86 1477.41,-502.42"/>
</g>
<!-- ragpon.service.document_processing_service&#45;&gt;ragpon.domain.metadata_generator -->
<g id="edge78" class="edge">
<title>ragpon.service.document_processing_service&#45;&gt;ragpon.domain.metadata_generator</title>
<path fill="none" stroke="black" d="M888.94,-252.45C896.33,-282.06 912,-344 926.62,-396 928.95,-404.27 931.6,-413.22 934.07,-421.38"/>
<polygon fill="black" stroke="black" points="936.91,-430.7 929.69,-422.45 935.81,-427.08 933.99,-421.13 933.99,-421.13 933.99,-421.13 935.81,-427.08 938.3,-419.82 936.91,-430.7"/>
</g>
<!-- ragpon.service.document_processing_service&#45;&gt;ragpon.ml_models.embedding_model -->
<g id="edge79" class="edge">
<title>ragpon.service.document_processing_service&#45;&gt;ragpon.ml_models.embedding_model</title>
<path fill="none" stroke="black" d="M834.32,-252.47C810.15,-261.69 781.17,-274.01 756.62,-288 733.45,-301.2 730.32,-308.5 708.62,-324 694.77,-333.9 679.29,-344.5 665.81,-353.6"/>
<polygon fill="black" stroke="black" points="657.84,-358.95 663.63,-349.64 660.98,-356.84 666.14,-353.38 666.14,-353.38 666.14,-353.38 660.98,-356.84 668.65,-357.11 657.84,-358.95"/>
</g>
<!-- ragpon.service.document_processing_service&#45;&gt;ragpon.ml_models.reranker -->
<g id="edge80" class="edge">
<title>ragpon.service.document_processing_service&#45;&gt;ragpon.ml_models.reranker</title>
<path fill="none" stroke="black" d="M815.07,-252.47C775.56,-262.55 725.23,-275.64 680.62,-288 599.87,-310.38 507.54,-337.87 446.45,-356.33"/>
<polygon fill="black" stroke="black" points="436.96,-359.2 445.23,-351.99 440.58,-358.1 446.53,-356.3 446.53,-356.3 446.53,-356.3 440.58,-358.1 447.84,-360.61 436.96,-359.2"/>
</g>
<!-- ragpon.service.document_processing_service&#45;&gt;ragpon.repository.bm25.bm25_repository -->
<g id="edge81" class="edge">
<title>ragpon.service.document_processing_service&#45;&gt;ragpon.repository.bm25.bm25_repository</title>
<path fill="none" stroke="black" d="M1016.36,-241.06C1193.6,-249.58 1518.61,-266.5 1795.62,-288 1809.32,-289.06 1823.62,-290.28 1837.88,-291.56"/>
<polygon fill="black" stroke="black" points="1847.55,-292.44 1837.18,-296.02 1843.78,-292.1 1837.59,-291.53 1837.59,-291.53 1837.59,-291.53 1843.78,-292.1 1837.99,-287.05 1847.55,-292.44"/>
</g>
<!-- ragpon.service.document_processing_service&#45;&gt;ragpon.repository.chromaDB_repository -->
<g id="edge82" class="edge">
<title>ragpon.service.document_processing_service&#45;&gt;ragpon.repository.chromaDB_repository</title>
<path fill="none" stroke="black" d="M1016.26,-247.15C1123.35,-257.28 1278.36,-272.52 1413.62,-288 1414.44,-288.09 1415.26,-288.19 1416.08,-288.28"/>
<polygon fill="black" stroke="black" points="1425.7,-289.41 1415.24,-292.72 1421.94,-288.97 1415.77,-288.25 1415.77,-288.25 1415.77,-288.25 1421.94,-288.97 1416.29,-283.78 1425.7,-289.41"/>
</g>
<!-- ragpon.service.document_processing_service&#45;&gt;ragpon.tokenizer -->
<g id="edge83" class="edge">
<title>ragpon.service.document_processing_service&#45;&gt;ragpon.tokenizer</title>
<path fill="none" stroke="black" d="M1016.15,-238.03C1207.32,-243.42 1552.25,-257.16 1672.62,-288 1792.01,-318.58 1920.65,-389.43 1982.39,-426.09"/>
<polygon fill="black" stroke="black" points="1990.67,-431.05 1979.78,-429.77 1987.42,-429.11 1982.09,-425.91 1982.09,-425.91 1982.09,-425.91 1987.42,-429.11 1984.4,-422.05 1990.67,-431.05"/>
</g>
<!-- ragpon.tokenizer&#45;&gt;ragpon._utils.logging_helper -->
<g id="edge84" class="edge">
<title>ragpon.tokenizer&#45;&gt;ragpon._utils.logging_helper</title>
<path fill="none" stroke="black" d="M2005.26,-468.47C1986.63,-489.69 1951.96,-524.56 1913.62,-540 1790.99,-589.38 1405.98,-594.44 1223.46,-593.93"/>
<polygon fill="black" stroke="black" points="1213.49,-593.9 1223.5,-589.43 1217.27,-593.91 1223.49,-593.93 1223.49,-593.93 1223.49,-593.93 1217.27,-593.91 1223.47,-598.43 1213.49,-593.9"/>
</g>
</g>
</svg>
